<?xml version="1.0" standalone="no"?>
<!DOCTYPE svg PUBLIC "-//W3C//DTD SVG 20010904//EN"
 "http://www.w3.org/TR/2001/REC-SVG-20010904/DTD/svg10.dtd">
<svg version="1.0" xmlns="http://www.w3.org/2000/svg"
 width="500.000000pt" height="500.000000pt" viewBox="0 0 500.000000 500.000000"
 preserveAspectRatio="xMidYMid meet">
<metadata>
Created by potrace 1.14, written by Peter Selinger 2001-2017
</metadata>
<g transform="translate(0.000000,500.000000) scale(0.100000,-0.100000)"
fill="#000000" stroke="none">
<path d="M3920 4119 c0 -8 -9 -20 -20 -26 -10 -7 -24 -23 -31 -35 -11 -21 -11
-21 19 3 31 24 49 55 38 66 -3 4 -6 0 -6 -8z"/>
<path d="M3155 4020 c-3 -5 -1 -10 4 -10 6 0 11 5 11 10 0 6 -2 10 -4 10 -3 0
-8 -4 -11 -10z"/>
<path d="M4124 3975 c-19 -29 -11 -44 14 -29 19 12 29 54 13 54 -6 0 -18 -11
-27 -25z"/>
<path d="M3206 3935 c-11 -8 -16 -15 -10 -15 5 0 18 7 28 15 11 8 16 15 10 15
-5 0 -18 -7 -28 -15z"/>
<path d="M3903 3887 c-84 -64 -91 -70 -52 -48 20 12 45 21 56 21 10 0 34 11
51 24 26 19 30 25 17 30 -25 9 -27 8 -72 -27z"/>
<path d="M2698 3888 c-41 -32 -27 -74 20 -61 32 8 44 73 14 73 -10 0 -25 -6
-34 -12z"/>
<path d="M2821 3813 c-46 -18 -91 -35 -100 -37 -33 -6 -67 -25 -89 -49 -17
-18 -32 -24 -55 -22 -45 4 -63 -9 -85 -58 -11 -23 -27 -51 -35 -62 -15 -19
-16 -18 -10 18 7 46 -7 48 -31 2 -10 -19 -23 -32 -29 -28 -6 3 -7 1 -3 -5 9
-16 -40 -69 -76 -81 l-33 -12 45 47 45 47 -35 -7 c-24 -4 -47 -19 -73 -48 -21
-24 -34 -34 -30 -23 6 18 5 18 -10 6 -9 -7 -17 -10 -17 -6 0 4 -7 2 -15 -5 -8
-7 -21 -10 -29 -7 -8 3 -17 1 -19 -6 -3 -7 -8 -4 -13 7 -5 13 -3 21 4 24 14 4
16 32 3 32 -5 0 -26 -20 -47 -45 -20 -25 -40 -45 -45 -45 -4 0 -31 14 -59 30
-41 24 -62 30 -108 30 -117 0 -353 -80 -419 -142 -21 -20 -49 -75 -42 -82 2
-3 40 13 84 34 95 46 237 89 321 97 53 5 70 2 119 -21 32 -14 66 -26 76 -26
24 0 24 -8 0 -39 l-19 -25 -37 33 c-63 55 -95 66 -157 53 -44 -9 -45 -10 -10
-6 79 8 128 -26 297 -206 43 -47 88 -90 100 -97 14 -9 98 -12 295 -13 l275 0
125 129 c154 159 180 179 245 184 l50 3 -55 2 c-56 2 -69 -3 -138 -55 l-30
-23 -16 25 c-20 30 -20 35 -1 35 9 0 34 9 55 20 67 34 114 34 228 2 56 -16
102 -28 102 -26 0 2 -5 15 -12 29 -16 35 -6 40 40 16 31 -16 42 -28 48 -57 7
-29 18 -41 53 -60 94 -50 143 -122 212 -308 42 -113 30 -104 -15 12 -74 185
-97 216 -208 273 -51 26 -48 18 7 -17 25 -15 45 -36 45 -45 0 -9 14 -60 30
-114 17 -54 30 -99 30 -102 0 -2 -10 3 -22 11 -12 9 -41 16 -64 16 -56 0 -94
-42 -94 -104 0 -51 21 -83 67 -103 47 -19 97 -3 124 40 l19 32 -1 -30 c0 -29
6 -80 10 -80 2 0 4 -11 7 -25 2 -14 8 -36 13 -50 5 -14 9 -49 8 -79 -2 -36 2
-55 11 -58 7 -3 10 -13 7 -24 -4 -10 1 -34 10 -53 9 -19 14 -40 10 -46 -4 -7
8 -4 26 6 l34 17 -20 -24 c-11 -13 -33 -36 -48 -50 l-28 -27 22 -15 c30 -22
18 -44 -32 -57 -55 -15 -90 -1 -82 31 5 20 3 21 -18 15 -13 -4 -37 -10 -53
-13 -24 -5 -28 -3 -23 11 4 9 2 16 -3 16 -6 0 -10 -4 -10 -9 0 -5 -18 -13 -40
-19 -31 -8 -42 -7 -48 3 -4 7 -23 17 -42 22 -40 10 -66 49 -48 70 6 7 17 13
24 13 8 0 14 4 14 9 0 6 -15 7 -34 4 -33 -5 -34 -5 -46 46 -6 28 -16 51 -21
51 -5 0 -9 6 -9 14 0 8 -23 39 -50 68 l-50 53 30 -51 c35 -58 45 -105 36 -168
-7 -47 -48 -116 -82 -140 -18 -13 -17 -8 7 40 38 75 44 127 24 189 -20 59 -46
90 -97 116 -93 48 -230 -6 -267 -104 -18 -46 -13 -118 10 -161 11 -21 25 -50
30 -63 l9 -25 -32 27 c-39 32 -67 80 -68 115 -1 44 -14 55 -44 35 -38 -25 -32
-4 7 22 23 16 37 36 46 68 7 26 28 62 46 81 18 19 30 34 27 34 -15 0 -74 -45
-96 -75 -16 -20 -36 -35 -48 -35 -16 0 -18 -3 -10 -13 8 -10 7 -23 -5 -49 -14
-32 -20 -36 -43 -31 -21 4 -28 1 -32 -14 -4 -16 0 -19 25 -18 28 0 29 -2 32
-51 3 -47 21 -104 46 -144 5 -8 12 -23 15 -32 4 -10 9 -18 13 -18 14 0 5 -49
-11 -59 -15 -9 -18 -8 -18 6 0 12 -3 14 -11 6 -8 -8 -6 -20 6 -43 9 -17 14
-37 11 -43 -2 -7 -5 -4 -5 6 -1 21 -17 22 -29 2 -7 -13 -10 -12 -20 10 -6 14
-18 25 -27 25 -23 0 -18 19 8 30 21 8 20 9 -8 11 -16 1 -34 1 -39 0 -10 -2
-26 18 -26 35 0 5 10 21 21 33 14 15 23 39 25 70 2 25 1 37 -2 27 -7 -24 -45
-57 -59 -52 -6 2 -10 -8 -10 -22 0 -20 -7 -29 -28 -36 -36 -13 -59 0 -72 42
-5 18 -15 32 -22 32 -6 0 -23 11 -37 25 -14 14 -28 21 -31 15 -3 -6 -15 -10
-26 -10 -23 0 -23 -1 -6 -31 6 -13 21 -24 32 -24 15 0 20 -6 19 -25 -1 -14 4
-28 10 -32 6 -4 7 -10 3 -14 -3 -4 -14 -1 -23 7 -13 11 -17 11 -25 -4 -11 -19
-43 -11 -35 9 7 18 0 18 -35 -3 -16 -10 -29 -23 -29 -30 0 -14 13 -17 24 -6
14 14 130 3 143 -14 7 -9 19 -12 32 -8 22 7 85 -21 77 -34 -7 -11 -136 -11
-136 0 0 18 -44 28 -61 13 -8 -8 -21 -14 -27 -14 -6 0 -16 -9 -22 -20 -6 -11
-15 -18 -21 -15 -5 4 -7 11 -4 16 9 14 -5 11 -21 -6 -11 -10 -36 -15 -82 -15
-37 0 -94 -4 -127 -10 -52 -8 -72 -6 -143 14 -54 16 -98 36 -124 56 -21 18
-41 30 -44 27 -10 -10 78 -74 133 -96 32 -13 61 -27 66 -31 4 -3 -12 -21 -36
-38 -25 -17 -47 -28 -51 -25 -3 3 -6 -1 -6 -10 0 -9 -13 -23 -29 -31 -27 -14
-30 -14 -36 2 -6 16 -7 16 -16 0 -6 -11 -22 -18 -39 -18 -33 0 -43 10 -30 30
6 10 -1 20 -28 37 -42 26 -71 31 -53 10 8 -11 5 -16 -15 -25 -14 -7 -31 -12
-39 -12 -8 0 -15 -5 -15 -10 0 -7 -6 -7 -20 0 -11 6 -20 17 -20 24 0 21 -27
40 -36 25 -4 -8 3 -21 19 -34 15 -11 27 -25 27 -29 0 -5 -9 -1 -20 9 -11 10
-20 15 -20 10 0 -4 -7 -2 -15 5 -8 6 -19 9 -24 6 -5 -4 -12 -2 -16 4 -4 6 -11
7 -17 4 -7 -4 -8 -2 -4 4 10 16 -6 15 -24 0 -8 -7 -6 -3 5 10 18 22 18 23 0
16 -13 -5 -16 -4 -11 4 4 8 0 12 -10 12 -24 0 -95 -50 -88 -62 5 -8 -40 -1
-58 9 -17 9 -6 31 32 68 22 21 40 47 40 58 0 11 -4 15 -11 11 -7 -4 -10 -1 -7
7 3 8 1 22 -3 31 -36 69 -43 284 -13 393 34 127 65 231 74 250 10 21 39 113
44 136 2 8 7 23 11 34 4 11 21 53 37 93 15 40 40 97 54 125 l26 52 -25 -25
c-22 -22 -73 -149 -187 -468 -13 -34 -25 -61 -27 -59 -2 2 4 24 12 48 9 24 23
72 31 107 13 54 13 65 1 77 -8 8 -17 11 -21 8 -3 -4 -6 8 -6 26 0 27 11 44 61
94 34 33 68 76 75 94 20 48 17 53 -8 13 l-23 -35 -3 28 c-2 15 -6 27 -8 27
-19 0 -42 -24 -47 -50 -5 -21 -12 -30 -27 -30 -22 0 -28 28 -9 47 8 8 2 20
-21 44 -20 22 -28 26 -21 13 17 -35 16 -126 -2 -161 -13 -25 -21 -30 -38 -26
-18 5 -21 3 -16 -10 8 -22 -8 -30 -34 -17 -35 19 -30 6 8 -18 19 -13 32 -19
29 -13 -4 5 -2 12 4 16 6 3 13 0 16 -9 3 -8 12 -12 21 -9 11 4 14 2 11 -8 -6
-17 -64 -24 -82 -10 -6 5 -21 9 -33 8 -17 -1 -19 -4 -9 -19 6 -10 14 -18 18
-18 11 0 10 -57 -2 -119 -12 -62 -7 -76 31 -91 19 -8 32 -23 38 -44 10 -38 -3
-57 -24 -35 -21 21 -72 13 -81 -13 -3 -11 -1 -25 5 -31 13 -13 15 -54 2 -62
-5 -3 -12 -1 -16 5 -9 15 -35 12 -29 -3 6 -17 -41 -61 -59 -54 -13 5 -43 -30
-39 -46 1 -4 -2 -16 -8 -26 -7 -13 -17 -17 -36 -13 -19 3 -25 1 -20 -7 4 -6
13 -11 21 -11 10 0 13 -13 12 -45 -1 -36 -5 -46 -22 -51 -31 -10 -53 -33 -49
-52 7 -25 -50 -81 -139 -135 -42 -27 -77 -55 -77 -63 0 -23 30 -16 39 9 15 39
109 74 126 47 4 -6 21 2 43 20 24 19 40 26 46 20 15 -15 26 -12 26 6 0 11 6
14 21 9 18 -6 20 -4 14 14 -8 25 10 27 97 9 42 -9 57 -16 53 -25 -14 -39 -27
-211 -22 -308 8 -153 58 -281 130 -328 21 -14 27 -14 43 -2 27 20 40 18 21 -3
-10 -10 -17 -21 -17 -24 0 -7 94 -45 132 -54 53 -12 135 61 243 216 59 83 60
84 69 57 6 -15 13 -27 18 -27 4 0 5 7 2 15 -9 23 32 19 66 -7 27 -19 44 -48
21 -34 -5 4 -7 -3 -4 -14 3 -11 20 -24 42 -31 47 -15 60 -27 41 -39 -12 -8 -9
-10 12 -10 14 0 35 -3 45 -7 17 -6 17 -5 -1 15 -17 19 -17 22 -3 22 10 0 17
-4 17 -9 0 -5 10 -11 23 -13 12 -2 22 -10 22 -18 0 -8 -6 -14 -13 -12 -10 2
-10 -2 0 -18 11 -17 14 -18 16 -5 5 23 22 7 22 -21 0 -18 -4 -23 -12 -18 -9 5
-9 2 1 -9 22 -28 34 -20 27 18 -6 28 -3 37 10 42 10 4 22 0 28 -9 11 -15 34
-22 64 -19 10 1 9 5 -3 17 -22 23 -13 39 21 37 30 -2 89 -56 80 -72 -6 -10 31
-47 40 -39 11 12 -10 60 -30 69 -16 6 -11 8 21 5 23 -1 48 -8 55 -13 16 -14
58 -18 78 -9 8 3 38 1 65 -5 61 -13 155 -11 172 3 17 14 70 -8 84 -33 5 -11
17 -19 27 -18 9 0 12 3 5 5 -7 3 -9 12 -6 20 7 18 33 0 33 -23 0 -8 11 -1 26
17 16 18 33 29 41 26 8 -4 11 -1 8 5 -4 6 -13 8 -20 5 -7 -2 -18 1 -24 7 -8 8
-11 6 -11 -7 0 -15 -2 -16 -15 -2 -8 8 -15 22 -15 31 0 10 -6 15 -13 12 -9 -3
-14 6 -15 26 -3 36 -12 50 -12 19 0 -12 -4 -22 -10 -22 -5 0 -10 6 -10 14 0 8
-2 21 -6 29 -7 19 45 54 56 37 5 -8 13 -9 21 -4 23 14 95 70 120 92 30 29 51
35 83 23 24 -10 26 -15 26 -69 0 -47 -5 -67 -25 -96 -14 -20 -25 -41 -25 -45
0 -5 -9 -20 -21 -35 -17 -22 -19 -29 -8 -42 10 -13 16 -11 41 15 17 17 26 35
22 44 -3 9 5 47 17 85 22 68 24 70 58 75 29 3 42 -1 64 -22 24 -22 40 -26 123
-33 52 -3 101 -12 109 -18 8 -6 19 -9 25 -5 6 3 10 -3 10 -14 0 -28 16 -26 47
5 l26 27 -61 29 c-66 30 -73 41 -42 60 31 20 24 28 -26 28 -47 0 -164 36 -164
50 0 13 29 20 76 20 24 0 44 5 44 10 0 6 -8 10 -17 8 -10 -2 -17 3 -15 10 3
16 -13 15 -48 -3 -28 -15 -30 -14 -30 4 0 14 11 23 38 32 20 6 49 20 65 31 15
11 27 14 27 8 0 -6 11 -21 25 -34 29 -27 31 -36 10 -36 -8 0 -15 -4 -15 -10 0
-5 11 -10 25 -10 30 0 48 -19 133 -139 86 -120 146 -188 200 -222 37 -24 47
-26 83 -18 99 23 186 92 231 183 l21 44 28 -33 c16 -18 38 -35 48 -38 18 -4
20 3 26 62 4 36 14 74 23 84 14 15 13 17 -2 17 -13 0 -16 5 -11 20 4 12 2 20
-5 20 -6 0 -13 -8 -16 -17 -3 -10 -10 -27 -15 -38 -4 -11 -10 -33 -12 -50 l-3
-30 -11 25 c-6 14 -12 87 -14 163 -2 75 -8 137 -13 137 -4 0 -6 7 -3 15 9 22
-38 302 -64 381 -8 27 -5 42 26 109 39 87 42 100 19 91 -13 -5 -15 1 -9 48 10
80 -7 122 -72 181 l-56 51 7 47 c5 32 17 59 37 81 16 19 29 39 29 45 0 6 4 11
10 11 13 0 60 94 60 120 0 12 4 19 9 16 5 -4 7 2 4 13 -3 10 11 48 30 85 31
58 33 67 19 75 -16 9 -21 68 -7 91 4 7 36 10 86 9 44 -1 81 0 83 2 2 2 6 20
10 40 l6 35 -57 2 c-32 1 -150 3 -263 4 -129 2 -212 7 -224 14 -10 6 -27 9
-37 7 -13 -4 -19 0 -19 11 0 10 -8 16 -22 16 -12 0 -19 3 -15 6 8 9 -14 65
-23 59 -19 -12 -112 -7 -120 6 -5 7 -24 15 -42 17 -18 2 -43 10 -55 18 -12 7
-30 11 -40 8 -13 -4 -10 0 7 14 13 11 37 23 52 26 15 3 28 10 28 16 0 14 -21
13 -61 -4 -19 -7 -53 -16 -77 -19 -36 -4 -41 -3 -27 7 9 7 35 13 57 15 47 2
102 27 93 42 -4 5 -15 3 -28 -6 -12 -8 -31 -14 -42 -14 -17 1 -17 2 -2 6 9 2
17 8 18 11 0 4 2 17 5 29 3 21 2 21 -29 11 -17 -6 -37 -19 -44 -27 -6 -9 -15
-12 -19 -8 -5 4 -2 12 6 17 8 6 11 10 7 10 -5 0 -23 -10 -39 -22 -23 -15 -35
-19 -46 -11 -21 13 -72 -6 -73 -27 0 -9 -2 -10 -5 -3 -3 7 -12 9 -20 6 -8 -3
-14 -2 -12 3 1 5 -4 20 -11 32 -11 21 -10 27 11 50 12 15 29 31 36 37 18 14
-32 17 -82 4 -24 -7 -41 -7 -45 -1 -3 5 -43 -6 -90 -25z m49 -28 c-7 -8 -17
-15 -22 -15 -6 0 -5 7 2 15 7 8 17 15 22 15 6 0 5 -7 -2 -15z m70 -69 c0 -16
-14 -36 -26 -36 -14 0 -19 22 -7 33 7 8 33 10 33 3z m-80 -26 c0 -5 -4 -10
-10 -10 -5 0 -10 5 -10 10 0 6 5 10 10 10 6 0 10 -4 10 -10z m20 -55 c-37 -38
-53 -44 -48 -18 3 15 52 51 72 52 6 1 -5 -15 -24 -34z m100 20 c-7 -9 -15 -13
-17 -11 -7 7 7 26 19 26 6 0 6 -6 -2 -15z m-150 -73 c0 -5 -11 -19 -25 -32
-29 -27 -33 -19 -7 15 17 25 32 32 32 17z m640 -52 c0 -19 -20 -27 -33 -13 -8
7 11 33 24 33 5 0 9 -9 9 -20z m433 -132 c6 -21 6 -21 -28 -8 -29 11 -26 30 5
27 10 -1 21 -9 23 -19z m-981 -66 l19 -34 -77 -86 c-131 -148 -84 -132 -391
-132 l-266 0 -98 103 c-54 56 -99 106 -99 111 0 5 9 24 21 42 l21 34 426 -2
425 -3 19 -33z m1045 -59 c-5 -31 -45 -108 -53 -101 -1 2 6 30 17 62 10 33 19
71 19 85 1 24 2 24 11 7 6 -10 9 -34 6 -53z m-2750 -203 c-31 -44 -87 -103
-81 -85 5 11 12 25 16 30 4 6 19 24 33 41 14 18 25 38 25 45 0 11 2 11 9 0 6
-9 5 -21 -2 -31z m2493 -215 c0 -5 -5 -3 -10 5 -5 8 -10 20 -10 25 0 6 5 3 10
-5 5 -8 10 -19 10 -25z m47 -117 c-3 -7 -5 -2 -5 12 0 14 2 19 5 13 2 -7 2
-19 0 -25z m-2661 -215 c-14 -43 -40 -134 -59 -203 -18 -68 -36 -120 -39 -115
-10 18 39 199 98 363 27 74 27 38 0 -45z m2689 -153 c3 -5 -3 -10 -14 -10 -11
0 -23 5 -26 10 -3 6 3 10 14 10 11 0 23 -4 26 -10z m-453 -64 c11 -19 67 -31
81 -17 6 6 22 11 37 11 18 0 21 -3 11 -9 -10 -6 -10 -10 -1 -16 6 -4 19 0 29
9 16 15 19 15 31 1 10 -12 10 -18 0 -30 -6 -8 -8 -20 -4 -27 6 -9 3 -9 -9 1
-15 12 -22 12 -43 0 -22 -11 -30 -11 -53 2 -26 15 -28 15 -37 -5 -5 -11 -22
-23 -40 -27 -46 -9 -56 -18 -48 -42 7 -22 7 -22 -15 -3 -12 11 -19 26 -16 34
3 10 0 12 -10 8 -8 -3 -14 -2 -13 2 1 4 -2 15 -6 25 -5 9 -5 25 0 35 4 9 6 20
6 24 -1 4 8 7 19 5 12 -1 24 4 26 11 3 6 -3 12 -12 12 -9 0 -13 5 -9 11 9 14
66 3 76 -15z m498 -14 c0 -13 -12 -22 -22 -16 -10 6 -1 24 13 24 5 0 9 -4 9
-8z m-145 -31 c-3 -6 -14 -11 -23 -11 -15 1 -15 2 2 15 21 16 32 13 21 -4z
m-486 -73 c-5 -35 10 -53 25 -33 11 16 15 15 42 -7 16 -14 44 -30 61 -36 79
-27 138 -98 110 -131 -8 -9 -16 -21 -18 -28 -5 -15 -69 38 -69 57 0 6 -5 10
-11 8 -6 -2 -29 13 -51 34 -43 40 -68 48 -68 24 0 -8 -11 -27 -24 -43 l-24
-27 -34 29 c-19 17 -42 41 -52 54 -18 23 -18 23 2 12 23 -12 34 -3 36 33 1 12
9 22 21 24 33 7 47 22 34 38 -9 11 -8 14 5 14 12 0 17 -7 15 -22z m-2202 -30
c-3 -7 -5 -2 -5 12 0 14 2 19 5 13 2 -7 2 -19 0 -25z m1410 26 c-3 -3 -12 -4
-19 -1 -8 3 -5 6 6 6 11 1 17 -2 13 -5z m-17 -20 c0 -2 -14 -4 -31 -4 -16 0
-28 4 -25 9 5 8 56 3 56 -5z m1307 -41 c12 -8 25 -29 29 -46 5 -25 2 -34 -16
-49 -27 -22 -83 -24 -103 -3 -8 8 -17 12 -20 9 -12 -12 -47 18 -47 41 0 17 11
31 42 49 45 27 72 26 115 -1z m-370 11 c-3 -3 -12 -4 -19 -1 -8 3 -5 6 6 6 11
1 17 -2 13 -5z m443 -29 c-13 -14 -26 -23 -28 -20 -3 3 5 16 18 30 13 14 26
23 28 20 3 -3 -5 -16 -18 -30z m-1302 -15 c11 -19 10 -20 -25 -19 -21 1 -30 3
-20 6 9 2 17 11 17 19 0 20 13 17 28 -6z m-94 -5 c4 -13 -8 -15 -81 -15 -47 0
-83 3 -79 7 3 4 33 6 66 5 32 -1 62 3 65 8 9 15 22 12 29 -5z m512 -90 c-2
-14 -7 -30 -13 -36 -7 -7 -9 -3 -6 14 6 28 -6 40 -27 26 -10 -6 -11 -9 -2 -9
18 0 15 -17 -4 -24 -23 -9 -26 -3 -18 28 5 21 12 26 39 26 30 0 33 -3 31 -25z
m199 -3 c15 -12 45 -42 66 -66 l40 -45 -28 -14 c-15 -8 -35 -11 -43 -7 -42 21
-89 33 -123 32 -35 -1 -38 1 -33 22 3 12 -1 32 -10 44 -12 17 -12 26 -3 43 9
18 18 21 59 17 28 -3 59 -14 75 -26z m-560 -2 c3 -5 1 -10 -4 -10 -6 0 -11 5
-11 10 0 6 2 10 4 10 3 0 8 -4 11 -10z m-1006 -44 c-2 -2 -15 -7 -29 -10 l-25
-7 25 21 c15 14 26 18 28 10 2 -6 2 -13 1 -14z m1342 -94 c-7 -2 -18 1 -23 6
-8 8 -4 9 13 5 13 -4 18 -8 10 -11z m614 -2 c10 -11 16 -20 13 -20 -3 0 -13 9
-23 20 -10 11 -16 20 -13 20 3 0 13 -9 23 -20z m-768 -12 c-3 -8 -6 -5 -6 6
-1 11 2 17 5 13 3 -3 4 -12 1 -19z m78 -8 c-27 -12 -35 -12 -35 0 0 6 12 10
28 9 24 0 25 -1 7 -9z m165 2 c0 -4 9 -8 20 -9 11 -1 29 -11 41 -22 l21 -20
-23 5 c-13 2 -18 2 -11 -2 6 -3 12 -10 12 -15 0 -12 -39 8 -62 32 -20 20 -23
39 -8 39 6 0 10 -4 10 -8z m-665 -22 c3 -5 -1 -10 -10 -10 -9 0 -13 5 -10 10
3 6 8 10 10 10 2 0 7 -4 10 -10z m1286 -37 c13 -16 12 -17 -3 -4 -17 13 -22
21 -14 21 2 0 10 -8 17 -17z m-1151 -3 c25 -1 41 -16 34 -33 -3 -9 -12 -17
-20 -17 -8 0 -14 -4 -14 -8 0 -5 -6 -9 -12 -9 -28 0 -86 -35 -84 -51 0 -9 -4
-16 -11 -15 -22 5 -1 -27 28 -43 41 -21 63 -58 55 -94 -3 -17 -1 -30 4 -30 6
0 10 -4 10 -10 0 -12 -44 -13 -90 -1 -19 5 -60 11 -91 14 -61 5 -136 34 -157
60 -16 19 -7 57 13 57 7 0 27 13 44 29 19 18 45 30 71 34 43 6 58 13 47 23 -3
3 -21 0 -40 -7 -31 -11 -37 -10 -52 5 -21 20 -22 19 35 35 25 8 60 18 78 23
17 5 32 16 32 23 0 14 49 25 85 19 11 -2 27 -4 35 -4z m-318 -57 c-24 -8 -46
-12 -50 -8 -11 11 21 25 58 24 l35 -1 -43 -15z m328 -38 c0 -7 -6 -16 -12 -18
-9 -4 -8 -6 3 -6 8 -1 21 5 28 12 11 10 12 9 6 -2 -6 -10 -4 -13 7 -9 8 4 20
3 27 -1 6 -4 -9 -8 -34 -8 -46 -1 -68 16 -58 44 5 15 33 5 33 -12z m328 -17
c-6 -17 -48 -23 -48 -8 0 7 -7 10 -15 6 -8 -3 -15 -1 -15 4 0 6 18 10 41 10
28 0 39 -4 37 -12z m212 2 c13 -9 13 -11 1 -19 -19 -12 -41 -3 -34 15 6 16 13
17 33 4z m225 -10 c3 -5 -1 -10 -9 -10 -9 0 -16 5 -16 10 0 6 4 10 9 10 6 0
13 -4 16 -10z m755 -10 c0 -11 -4 -20 -9 -20 -5 0 -7 9 -4 20 3 11 7 20 9 20
2 0 4 -9 4 -20z m-1511 -25 l35 -7 -28 -15 c-49 -25 -99 0 -82 42 6 16 8 16
24 2 9 -8 32 -18 51 -22z m131 -60 c-14 -17 -30 -20 -30 -4 0 5 4 8 9 5 5 -3
12 1 15 10 4 9 9 14 13 11 3 -4 0 -13 -7 -22z m-55 -70 c-16 -13 -34 -24 -40
-24 -5 0 4 11 20 24 17 14 35 25 40 25 6 0 -3 -11 -20 -25z m-577 6 c11 -7 10
-10 -3 -15 -19 -7 -35 0 -35 15 0 11 20 12 38 0z"/>
<path d="M2435 3341 c-55 -24 -90 -97 -75 -152 32 -110 172 -132 230 -36 50
82 2 185 -90 193 -25 2 -54 0 -65 -5z"/>
<path d="M3410 2250 c0 -5 5 -10 10 -10 6 0 10 5 10 10 0 6 -4 10 -10 10 -5 0
-10 -4 -10 -10z"/>
<path d="M3175 2140 c3 -5 11 -10 16 -10 6 0 7 5 4 10 -3 6 -11 10 -16 10 -6
0 -7 -4 -4 -10z"/>
<path d="M2186 1581 c-3 -4 3 -16 13 -25 17 -16 19 -16 24 3 2 11 2 22 -1 25
-8 9 -30 7 -36 -3z"/>
<path d="M3610 3815 c-19 -14 -40 -25 -47 -25 -10 0 -11 -5 -3 -19 14 -26 13
-31 -6 -31 -12 0 -15 -6 -9 -22 3 -13 11 -41 16 -63 12 -48 35 -85 52 -85 7 0
20 -9 30 -20 9 -11 24 -20 33 -20 13 0 14 3 5 14 -9 11 -9 20 -2 35 15 26 14
28 -9 34 -17 4 -20 10 -14 34 6 24 5 26 -8 15 -13 -11 -15 -8 -15 15 0 16 2
22 5 15 3 -10 13 -4 33 17 25 28 27 35 16 52 -11 19 -12 19 -15 1 -2 -10 -18
-24 -37 -31 -31 -11 -35 -17 -35 -47 0 -19 5 -34 11 -34 5 0 7 -5 3 -11 -7
-12 -44 37 -44 58 0 7 16 30 35 51 34 38 62 92 47 92 -5 0 -23 -11 -42 -25z"/>
<path d="M4145 3830 c-3 -5 -1 -10 4 -10 6 0 11 5 11 10 0 6 -2 10 -4 10 -3 0
-8 -4 -11 -10z"/>
<path d="M1397 3823 c-3 -5 -2 -15 2 -22 5 -7 11 -9 14 -4 3 5 2 15 -2 22 -5
7 -11 9 -14 4z"/>
<path d="M3330 3820 c-9 -6 -10 -10 -3 -10 6 0 15 5 18 10 8 12 4 12 -15 0z"/>
<path d="M1720 3764 c-6 -14 -10 -33 -10 -43 0 -23 -67 -111 -84 -111 -8 0
-16 -9 -19 -20 -13 -50 -67 -5 -67 56 0 18 -4 23 -12 17 -7 -4 -22 -8 -33 -8
-28 0 -25 -29 3 -33 12 -2 29 -16 37 -32 8 -15 20 -30 27 -33 7 -2 9 -8 5 -13
-5 -5 -14 -1 -22 9 -16 22 -43 16 -71 -14 -19 -21 -19 -21 1 -19 41 5 46 1 42
-33 -3 -28 0 -33 17 -34 12 -1 15 1 8 4 -15 6 30 33 54 33 8 0 17 7 20 15 4 8
24 18 45 21 47 8 52 24 7 24 -28 1 -30 2 -15 11 9 5 22 7 29 3 7 -5 9 -2 5 8
-7 19 10 97 25 116 9 10 13 10 19 1 4 -7 7 -3 7 12 1 13 4 39 8 57 8 39 -12
44 -26 6z m-225 -124 c3 -5 1 -10 -4 -10 -6 0 -11 5 -11 10 0 6 2 10 4 10 3 0
8 -4 11 -10z"/>
<path d="M3373 3750 c-32 -13 -28 -17 12 -12 19 2 32 8 29 13 -6 11 -12 11
-41 -1z"/>
<path d="M2376 3721 c-4 -7 -5 -15 -2 -18 9 -9 19 4 14 18 -4 11 -6 11 -12 0z"/>
<path d="M3463 3724 c4 -4 -7 -22 -24 -40 -34 -35 -35 -73 -1 -59 9 4 26 7 37
7 26 -1 55 26 55 52 0 30 -11 41 -45 44 -16 2 -26 0 -22 -4z"/>
<path d="M1162 3698 c2 -6 14 -18 27 -26 22 -15 22 -15 10 11 -12 26 -45 39
-37 15z"/>
<path d="M3900 3688 c0 -4 4 -8 9 -8 6 0 12 4 15 8 3 5 -1 9 -9 9 -8 0 -15 -4
-15 -9z"/>
<path d="M2221 3653 c-1 -7 -9 -13 -18 -13 -13 0 -14 -3 -5 -12 15 -15 37 3
29 24 -4 9 -6 10 -6 1z"/>
<path d="M1231 3634 c9 -10 24 -32 32 -49 l16 -30 1 27 c0 19 -9 33 -32 49
-28 19 -30 20 -17 3z"/>
<path d="M3890 3620 c-9 -6 -10 -10 -3 -10 6 0 15 5 18 10 8 12 4 12 -15 0z"/>
<path d="M2130 3600 c0 -11 5 -20 10 -20 6 0 10 9 10 20 0 11 -4 20 -10 20 -5
0 -10 -9 -10 -20z"/>
<path d="M1441 3594 c0 -11 3 -14 6 -6 3 7 2 16 -1 19 -3 4 -6 -2 -5 -13z"/>
<path d="M1848 3585 c-3 -14 -2 -27 1 -30 4 -2 8 10 9 26 3 36 -4 38 -10 4z"/>
<path d="M4272 3598 c-19 -19 -14 -30 8 -18 11 6 20 15 20 20 0 14 -14 12 -28
-2z"/>
<path d="M2154 3574 c-6 -3 -9 -16 -6 -30 4 -23 6 -24 23 -8 10 9 15 22 12 30
-5 14 -10 16 -29 8z"/>
<path d="M1730 3551 c0 -6 14 -11 31 -11 17 0 28 -4 24 -10 -9 -15 8 -12 31 5
18 14 18 14 -11 15 -16 0 -40 3 -52 6 -14 4 -23 2 -23 -5z"/>
<path d="M3786 3541 c-4 -6 -19 -11 -34 -12 -19 0 -12 -4 23 -14 33 -9 53 -10
60 -4 7 7 4 8 -7 4 -11 -4 -18 -2 -18 4 0 6 14 11 30 11 17 0 30 -4 30 -8 0
-5 25 -10 56 -11 31 -1 60 -3 63 -6 4 -2 13 0 21 6 16 9 16 9 -52 14 -15 1
-33 6 -40 11 -19 14 -124 18 -132 5z"/>
<path d="M1060 3406 c0 -7 7 -19 15 -26 13 -11 15 -8 15 14 0 16 -5 26 -15 26
-8 0 -15 -6 -15 -14z"/>
<path d="M1155 3371 c-3 -5 -1 -12 5 -16 5 -3 10 1 10 9 0 18 -6 21 -15 7z"/>
<path d="M3195 3370 c27 -12 43 -12 25 0 -8 5 -22 9 -30 9 -10 0 -8 -3 5 -9z"/>
<path d="M1060 3310 c0 -5 4 -10 9 -10 6 0 13 5 16 10 3 6 -1 10 -9 10 -9 0
-16 -4 -16 -10z"/>
<path d="M4075 3313 c-19 -5 -65 -51 -65 -65 0 -3 -3 -15 -6 -25 -5 -13 -2
-12 10 5 20 25 36 29 36 7 0 -8 4 -15 9 -15 14 0 60 40 72 62 10 19 9 20 -10
14 -58 -17 -67 -18 -38 -1 39 23 37 29 -8 18z"/>
<path d="M1248 3254 c-3 -27 -8 -58 -13 -69 -8 -18 -7 -19 8 -6 15 12 17 11
18 -5 1 -24 26 45 31 83 2 20 -1 27 -11 25 -8 -2 -17 2 -22 9 -4 6 -9 -10 -11
-37z"/>
<path d="M1405 3240 c-16 -11 -25 -20 -20 -20 10 0 64 39 55 40 -3 0 -18 -9
-35 -20z"/>
<path d="M4222 3224 c-23 -16 -31 -59 -10 -52 14 5 51 68 40 68 -4 0 -18 -7
-30 -16z"/>
<path d="M3220 3217 c-34 -17 -62 -74 -55 -112 7 -39 51 -83 91 -91 43 -8 91
18 111 61 43 91 -57 187 -147 142z m30 -57 c7 -16 16 -30 20 -30 5 0 13 14 19
30 5 17 17 30 25 30 21 0 20 -5 -9 -48 -14 -20 -25 -49 -25 -64 0 -38 -15 -36
-18 2 -1 17 -11 45 -22 63 -22 35 -25 47 -11 47 5 0 14 -13 21 -30z"/>
<path d="M4020 3168 c-12 -22 -12 -22 6 -6 10 10 15 20 12 24 -4 3 -12 -5 -18
-18z"/>
<path d="M4163 3148 c-12 -6 -24 -17 -27 -25 -4 -11 1 -10 24 4 17 9 30 21 30
25 0 9 1 10 -27 -4z"/>
<path d="M1641 3129 c-74 -22 -125 -82 -140 -166 -11 -54 3 -102 49 -169 34
-51 30 -54 -17 -18 -33 25 -73 90 -73 119 0 19 -4 19 -40 0 -18 -9 -30 -24
-30 -35 0 -10 -4 -22 -10 -25 -18 -11 -10 -34 13 -37 12 -2 21 -9 19 -16 -1
-6 3 -12 9 -12 6 0 8 -7 5 -16 -3 -9 -2 -12 4 -9 6 4 16 -7 23 -24 7 -17 16
-28 20 -24 4 3 7 2 7 -4 0 -6 14 -16 30 -23 17 -7 30 -16 30 -20 0 -4 15 -6
34 -3 28 3 36 -1 41 -17 5 -15 15 -20 41 -20 20 0 34 5 34 13 0 9 2 9 9 -1 5
-9 17 -11 37 -6 115 28 202 134 211 259 3 33 0 71 -5 85 -10 24 -11 24 -11
-10 -2 -79 -46 -161 -104 -191 -17 -10 -17 -7 5 22 65 89 69 194 8 279 -40 56
-133 88 -199 69z"/>
<path d="M4080 3123 c-8 -3 -28 -21 -46 -40 -17 -18 -38 -33 -47 -33 -28 0
-85 -79 -97 -133 -6 -27 -8 -52 -5 -55 3 -3 5 0 5 6 0 7 7 12 15 12 10 0 15
-10 15 -29 0 -34 -16 -50 -23 -24 -4 17 -5 17 -12 -1 -6 -14 -2 -24 15 -38 30
-24 45 -18 46 18 1 55 4 64 19 64 9 0 18 -6 21 -14 7 -19 -14 -96 -26 -96 -17
0 -11 -23 11 -46 12 -13 28 -20 40 -17 27 7 24 28 -6 41 -29 13 -30 20 -10 46
8 11 15 34 15 50 0 47 13 60 52 53 26 -4 37 -1 46 13 10 16 8 17 -29 13 -25
-4 -39 -2 -39 6 0 6 -7 11 -15 11 -9 0 -15 10 -15 26 0 19 4 25 15 20 11 -4
15 1 15 17 0 12 12 35 27 51 14 16 27 42 28 57 1 16 1 29 1 28 -1 0 -8 -3 -16
-6z"/>
<path d="M1471 3075 c-36 -42 -55 -76 -69 -127 -8 -30 -8 -38 3 -38 33 0 45
13 45 50 0 21 12 61 28 94 16 31 28 56 26 56 -1 0 -16 -16 -33 -35z"/>
<path d="M4106 3074 c-5 -14 -4 -15 9 -4 17 14 19 20 6 20 -5 0 -12 -7 -15
-16z"/>
<path d="M3960 3069 c0 -5 5 -7 10 -4 6 3 10 8 10 11 0 2 -4 4 -10 4 -5 0 -10
-5 -10 -11z"/>
<path d="M797 3033 c-11 -11 -8 -21 9 -27 14 -5 15 -4 4 9 -21 25 5 17 30 -10
33 -35 46 -31 20 5 -20 28 -48 38 -63 23z"/>
<path d="M3035 3026 c-93 -41 -93 -159 0 -205 61 -30 145 29 145 102 0 79 -76
133 -145 103z m85 -35 c0 -12 -20 -25 -27 -18 -7 7 6 27 18 27 5 0 9 -4 9 -9z"/>
<path d="M925 2980 c6 -20 4 -22 -27 -15 -24 4 -29 3 -18 -4 20 -14 41 -13 62
2 15 12 15 14 -4 26 -18 11 -19 10 -13 -9z"/>
<path d="M2200 2980 c-45 -45 -13 -133 49 -133 44 0 75 32 75 79 0 65 -79 99
-124 54z"/>
<path d="M2661 2974 c-52 -66 7 -154 81 -123 51 21 63 77 27 123 -15 19 -30
26 -54 26 -24 0 -39 -7 -54 -26z"/>
<path d="M824 2976 c23 -18 36 -20 36 -6 0 6 -4 10 -9 10 -5 0 -18 3 -28 6
-16 5 -16 4 1 -10z"/>
<path d="M4172 2957 c-24 -17 -38 -33 -32 -35 12 -4 100 49 100 61 0 14 -26 5
-68 -26z"/>
<path d="M1195 2972 c-6 -4 -16 -18 -24 -32 -13 -25 -13 -25 15 2 25 25 32 47
9 30z"/>
<path d="M952 2948 c2 -6 10 -14 16 -16 7 -2 10 2 6 12 -7 18 -28 22 -22 4z"/>
<path d="M3857 2944 c-4 -4 -7 -14 -7 -23 0 -11 3 -12 11 -4 6 6 10 16 7 23
-2 6 -7 8 -11 4z"/>
<path d="M3218 2804 c-35 -18 -48 -43 -48 -90 0 -67 63 -133 114 -119 85 24
119 92 81 165 -28 54 -94 74 -147 44z m82 -57 c0 -20 0 -20 -15 -1 -13 16 -16
17 -25 4 -13 -20 -13 -4 1 21 8 16 13 18 25 8 8 -6 14 -21 14 -32z"/>
<path d="M4122 2808 c-16 -16 -15 -28 3 -28 8 0 15 9 15 20 0 23 -2 24 -18 8z"/>
<path d="M930 2780 c0 -5 5 -10 10 -10 6 0 10 5 10 10 0 6 -4 10 -10 10 -5 0
-10 -4 -10 -10z"/>
<path d="M3395 2779 c-11 -17 1 -21 15 -4 8 9 8 15 2 15 -6 0 -14 -5 -17 -11z"/>
<path d="M2012 2712 c-56 -20 -105 -60 -127 -103 l-14 -25 50 24 c58 27 79 24
79 -13 0 -24 -3 -25 -57 -25 -84 0 -88 -5 -88 -98 0 -101 8 -112 86 -112 l59
0 0 -55 c0 -75 20 -95 96 -95 85 0 94 9 94 85 0 64 0 65 28 65 32 1 106 11
110 15 2 2 8 21 13 43 10 47 -3 131 -22 143 -8 5 -40 9 -71 9 -58 0 -58 0 -58
30 0 28 2 30 41 30 28 0 38 -4 33 -12 -5 -7 -2 -9 8 -5 9 3 22 0 29 -6 16 -15
-5 17 -36 51 -54 63 -163 86 -253 54z"/>
<path d="M3555 2690 c-3 -6 1 -13 10 -16 19 -8 30 0 20 15 -8 14 -22 14 -30 1z"/>
<path d="M1200 2613 c0 -22 17 -120 26 -150 4 -16 -1 -28 -20 -44 -14 -12 -23
-26 -20 -31 3 -5 0 -15 -6 -23 -8 -10 -9 -15 -2 -15 6 0 17 8 24 18 14 20 38
37 38 27 0 -10 -74 -81 -98 -94 -23 -12 -30 -31 -12 -31 6 0 31 19 55 41 36
33 54 42 92 47 27 3 57 11 68 18 31 22 43 17 47 -18 2 -24 8 -32 27 -35 32 -5
63 -33 56 -51 -3 -10 3 -12 23 -10 23 3 28 8 30 38 4 39 -17 61 -49 53 -21 -6
-59 22 -59 43 0 8 -6 11 -16 7 -13 -5 -15 -2 -9 15 3 12 2 22 -3 22 -6 0 -8 8
-5 19 3 10 0 22 -6 25 -6 4 -11 16 -11 28 0 15 -4 18 -17 13 -10 -4 -30 -10
-46 -13 -15 -2 -34 -14 -43 -26 -20 -29 -30 -11 -38 75 -4 38 -11 69 -17 69
-5 0 -9 -8 -9 -17z m128 -205 c-3 -13 -23 -38 -31 -38 -7 0 -3 22 6 38 10 16
28 16 25 0z"/>
<path d="M3444 2605 c-10 -8 -14 -15 -7 -15 19 0 43 11 43 21 0 13 -14 11 -36
-6z"/>
<path d="M3370 2590 c-8 -5 -10 -10 -5 -10 6 0 17 5 25 10 8 5 11 10 5 10 -5
0 -17 -5 -25 -10z"/>
<path d="M3960 2511 c-11 -22 -13 -52 -4 -75 8 -22 44 -2 44 24 0 11 6 25 13
32 12 10 10 15 -11 25 -31 16 -29 17 -42 -6z"/>
<path d="M1600 2490 c0 -5 4 -10 9 -10 6 0 13 5 16 10 3 6 -1 10 -9 10 -9 0
-16 -4 -16 -10z"/>
<path d="M4050 2490 c0 -5 5 -10 11 -10 5 0 7 5 4 10 -3 6 -8 10 -11 10 -2 0
-4 -4 -4 -10z"/>
<path d="M4131 2423 c6 -15 14 -30 19 -33 5 -3 11 -17 13 -30 9 -44 19 -61 36
-58 21 4 19 20 -5 33 -13 7 -19 20 -18 40 0 33 -24 74 -43 75 -9 0 -10 -7 -2
-27z"/>
<path d="M2483 2414 c-6 -13 -7 -22 -2 -18 5 3 9 0 9 -5 0 -6 7 -11 15 -11 18
0 19 19 2 41 -11 15 -14 14 -24 -7z"/>
<path d="M2347 2363 c-11 -11 -8 -23 6 -23 8 0 14 7 14 15 0 16 -9 19 -20 8z"/>
<path d="M3520 2360 c0 -5 5 -10 11 -10 5 0 7 5 4 10 -3 6 -8 10 -11 10 -2 0
-4 -4 -4 -10z"/>
<path d="M726 2345 c-3 -8 -1 -15 4 -15 13 0 22 18 11 24 -5 3 -11 -1 -15 -9z"/>
<path d="M2410 2350 c-22 -7 -21 -8 13 -9 20 -1 37 4 37 9 0 11 -14 11 -50 0z"/>
<path d="M3345 2340 c4 -6 11 -8 16 -5 14 9 11 15 -7 15 -8 0 -12 -5 -9 -10z"/>
<path d="M1320 2290 c0 -5 7 -10 16 -10 8 0 12 5 9 10 -3 6 -10 10 -16 10 -5
0 -9 -4 -9 -10z"/>
<path d="M4065 2290 c-8 -13 5 -13 25 0 13 8 13 10 -2 10 -9 0 -20 -4 -23 -10z"/>
<path d="M1750 2275 c-7 -8 -16 -12 -21 -9 -11 6 -11 1 -3 -21 6 -14 9 -13 30
6 13 12 24 26 24 31 0 13 -16 9 -30 -7z"/>
<path d="M1627 2254 c-4 -4 -7 -18 -7 -31 0 -18 5 -24 18 -21 10 2 17 12 17
27 0 24 -15 37 -28 25z"/>
<path d="M4018 2242 c-10 -2 -18 -8 -18 -13 0 -13 27 -11 35 2 9 13 4 16 -17
11z"/>
<path d="M2566 2221 c-4 -5 -2 -12 3 -15 5 -4 12 -2 15 3 4 5 2 12 -3 15 -5 4
-12 2 -15 -3z"/>
<path d="M1556 2205 c-6 -18 0 -35 13 -35 9 0 8 36 -1 45 -3 3 -8 -1 -12 -10z"/>
<path d="M1600 2179 c0 -5 5 -7 10 -4 6 3 10 8 10 11 0 2 -4 4 -10 4 -5 0 -10
-5 -10 -11z"/>
<path d="M2085 2170 c-3 -5 -2 -10 4 -10 5 0 13 5 16 10 3 6 2 10 -4 10 -5 0
-13 -4 -16 -10z"/>
<path d="M1710 2156 c0 -9 7 -16 16 -16 17 0 14 22 -4 28 -7 2 -12 -3 -12 -12z"/>
<path d="M495 2135 c-16 -8 -23 -14 -15 -14 8 0 26 6 40 14 32 18 15 18 -25 0z"/>
<path d="M1947 2134 c-8 -8 1 -24 14 -24 5 0 9 7 9 15 0 15 -12 20 -23 9z"/>
<path d="M1246 2104 c-43 -15 -66 -32 -66 -46 0 -10 65 -1 91 13 9 5 20 4 26
-2 6 -6 14 -5 23 6 10 13 9 15 -6 16 -11 1 -23 1 -28 0 -5 -1 -4 5 4 13 15 19
7 19 -44 0z"/>
<path d="M1400 2112 c0 -12 19 -26 26 -19 2 2 -2 10 -11 17 -9 8 -15 8 -15 2z"/>
<path d="M939 2063 c-13 -15 -12 -15 9 -4 23 12 28 21 13 21 -5 0 -15 -7 -22
-17z"/>
<path d="M4186 1981 c-3 -5 -16 -7 -29 -4 -18 5 -20 3 -9 -8 6 -7 12 -23 12
-36 0 -19 3 -21 23 -14 12 5 24 16 25 26 3 13 -1 16 -20 10 l-23 -6 25 20 c14
11 20 21 13 21 -6 0 -14 -4 -17 -9z"/>
<path d="M4125 1910 c4 -6 11 -8 16 -5 14 9 11 15 -7 15 -8 0 -12 -5 -9 -10z"/>
<path d="M924 1888 l-19 -23 23 19 c21 18 27 26 19 26 -2 0 -12 -10 -23 -22z"/>
<path d="M4285 1880 c-3 -5 1 -10 9 -10 9 0 16 5 16 10 0 6 -4 10 -9 10 -6 0
-13 -4 -16 -10z"/>
<path d="M4087 1853 c2 -6 -4 -10 -14 -10 -22 2 -30 -37 -13 -58 7 -9 10 -26
6 -42 l-7 -28 16 23 c24 34 71 30 93 -7 9 -17 27 -35 40 -41 13 -5 21 -14 18
-19 -7 -10 49 -61 66 -61 6 0 -1 13 -17 28 -28 28 -55 96 -55 140 0 23 -6 25
-52 22 -25 -1 -27 1 -21 34 5 34 5 35 -29 33 -22 -1 -34 -6 -31 -14z"/>
<path d="M4212 1848 c-16 -16 -15 -38 1 -38 6 0 13 11 13 25 2 29 2 29 -14 13z"/>
<path d="M4380 1800 c0 -5 11 -10 25 -10 14 0 25 5 25 10 0 6 -11 10 -25 10
-14 0 -25 -4 -25 -10z"/>
<path d="M4168 1653 c7 -3 16 -2 19 1 4 3 -2 6 -13 5 -11 0 -14 -3 -6 -6z"/>
<path d="M3310 1611 c0 -6 5 -13 10 -16 6 -3 10 1 10 9 0 9 -4 16 -10 16 -5 0
-10 -4 -10 -9z"/>
<path d="M4270 1592 c0 -12 19 -26 26 -19 2 2 -2 10 -11 17 -9 8 -15 8 -15 2z"/>
<path d="M4375 1565 c32 -26 45 -31 45 -16 0 13 -41 41 -60 41 -9 0 -4 -9 15
-25z"/>
<path d="M2710 1569 c0 -5 5 -7 10 -4 6 3 10 8 10 11 0 2 -4 4 -10 4 -5 0 -10
-5 -10 -11z"/>
<path d="M2681 1552 c-7 -13 -11 -28 -8 -35 2 -7 9 -2 16 11 7 13 11 28 8 35
-2 7 -9 2 -16 -11z"/>
<path d="M3897 1509 c-3 -12 -2 -29 2 -38 5 -8 5 -26 0 -39 -13 -35 -6 -36 18
-4 20 27 36 92 22 92 -4 0 -14 3 -22 6 -9 3 -16 -3 -20 -17z"/>
<path d="M1700 1509 c0 -5 9 -9 20 -9 11 0 20 2 20 4 0 2 -9 6 -20 9 -11 3
-20 1 -20 -4z"/>
<path d="M675 1440 c-3 -5 -2 -10 4 -10 5 0 13 5 16 10 3 6 2 10 -4 10 -5 0
-13 -4 -16 -10z"/>
<path d="M2940 1400 c0 -11 7 -20 15 -20 8 0 15 5 15 10 0 6 -5 10 -11 10 -5
0 -7 5 -4 10 3 6 1 10 -4 10 -6 0 -11 -9 -11 -20z"/>
<path d="M2358 1383 c5 -21 7 -23 10 -9 2 10 0 22 -6 28 -6 6 -7 0 -4 -19z"/>
<path d="M3197 1404 c-4 -4 -7 -14 -7 -23 0 -11 3 -12 11 -4 6 6 10 16 7 23
-2 6 -7 8 -11 4z"/>
<path d="M3510 1401 c0 -14 41 -41 52 -35 14 9 -12 44 -32 44 -11 0 -20 -4
-20 -9z"/>
<path d="M3801 1385 c-1 -16 -4 -39 -6 -50 -5 -19 9 -54 18 -45 3 3 2 32 -3
65 -4 33 -8 47 -9 30z"/>
<path d="M2242 1366 c1 -15 6 -26 10 -26 12 0 10 38 -2 45 -6 4 -9 -5 -8 -19z"/>
<path d="M820 1360 c-13 -8 -13 -10 2 -10 9 0 20 5 23 10 8 13 -5 13 -25 0z"/>
<path d="M1165 1360 c-3 -5 -2 -10 4 -10 5 0 13 5 16 10 3 6 2 10 -4 10 -5 0
-13 -4 -16 -10z"/>
<path d="M1178 1323 c7 -3 16 -2 19 1 4 3 -2 6 -13 5 -11 0 -14 -3 -6 -6z"/>
<path d="M2251 1314 c0 -11 3 -14 6 -6 3 7 2 16 -1 19 -3 4 -6 -2 -5 -13z"/>
<path d="M3140 1322 c0 -6 -7 -9 -15 -6 -20 8 -45 -13 -45 -37 0 -19 16 -24
36 -11 16 10 37 53 30 60 -3 3 -6 0 -6 -6z"/>
<path d="M3207 1314 c-4 -4 -7 -14 -7 -23 0 -11 3 -12 11 -4 6 6 10 16 7 23
-2 6 -7 8 -11 4z"/>
<path d="M4020 1295 c7 -8 17 -15 22 -15 6 0 5 7 -2 15 -7 8 -17 15 -22 15 -6
0 -5 -7 2 -15z"/>
<path d="M1086 1206 c-46 -51 -57 -71 -54 -93 2 -23 8 -29 34 -31 25 -2 37 3
53 24 11 15 21 32 21 38 0 6 -4 5 -9 -3 -6 -9 -11 -10 -15 -2 -4 6 -4 16 -1
21 3 6 2 10 -4 10 -5 0 -13 -4 -16 -10 -3 -5 -11 -10 -17 -10 -6 0 9 21 33 47
24 27 48 47 52 45 5 -1 7 3 5 10 -9 26 -28 16 -82 -46z"/>
<path d="M3823 1245 c0 -14 3 -22 8 -19 5 3 9 11 9 19 0 8 -4 16 -9 19 -5 3
-8 -5 -8 -19z"/>
<path d="M2357 1246 c-4 -10 1 -12 14 -9 23 6 24 9 5 16 -8 3 -17 0 -19 -7z"/>
<path d="M1672 1208 c-28 -28 -2 -88 59 -134 39 -30 107 -63 129 -64 8 0 -12
13 -45 29 -76 36 -113 74 -95 96 11 13 10 19 -4 33 -9 10 -16 26 -16 35 0 20
-11 22 -28 5z"/>
<path d="M3530 1189 c0 -5 5 -7 10 -4 6 3 10 8 10 11 0 2 -4 4 -10 4 -5 0 -10
-5 -10 -11z"/>
<path d="M3153 1153 c-16 -6 -17 -29 -1 -39 10 -7 38 20 38 38 0 9 -18 9 -37
1z"/>
<path d="M3626 1112 c-10 -17 24 -72 45 -72 25 0 24 15 -3 34 -19 14 -20 16
-4 16 10 0 16 6 14 13 -5 15 -44 22 -52 9z"/>
<path d="M3970 919 c0 -6 6 -9 13 -6 6 2 21 0 32 -5 20 -9 20 -9 1 6 -23 18
-46 21 -46 5z"/>
</g>
</svg>
